{"title":"Rammbock Berlin Undead 2011 DVDRip Xvid AC3 UnKnOwN","uid":6568698,"size":728813570,"categoryP":"video","categoryS":"movies","magnet":"?xt=urn:btih:f7b7ee1a5817c2285f1ef65a2854f5199d5e8874&amp;dn=Rammbock+Berlin+Undead+2011+DVDRip+Xvid+AC3+UnKnOwN&amp;tr=udp%3A%2F%2Ftracker.openbittorrent.com%3A80&amp;tr=udp%3A%2F%2Fopen.demonii.com%3A1337&amp;tr=udp%3A%2F%2Ftracker.coppersurfer.tk%3A6969&amp;tr=udp%3A%2F%2Fexodus.desync.com%3A6969","seeders":1,"leechers":1,"uploader":"HeroMaster","files":-1,"time":1311849832,"description":"::::: UnKnOwN Presents :::::\n\n\n:::: Rammbock Berlin Undead 2011 DVDRip ::::\n\n\n::Notes::\n\n\nEncoded By .......:UnKnOwN\nRuntime ..........:1:01\nIMDb URL .........:http://www.imdb.com/title/tt1583356/\nLanguage .........:English\nFile Size ........:700mb\nRelease Date ......... 2011\nSource ......... R1\nFile Type ......... Single AVI\nPS3 Compatible ....... Go for it\nGenre ......... Horror/Gore\n\n\nInfomation::\n\n\nVideo\nID: 0\nFormat: MPEG-4 Visual\nFormat profile: Advanced Simple@L5\nFormat settings, BVOP: Yes\nFormat settings, QPel: No\nFormat settings, GMC: No warppoints\nFormat settings, Matrix: Custom\nCodec ID: XVID\nCodec ID/Hint: XviD\nDuration: 1h 01mn\nBit rate: 1 187 Kbps\nWidth: 680pixels\nHeight: 364 pixels\nDisplay aspect ratio: 16:9\nFrame rate: 29.976 fps\nColor space: YUV\nChroma subsampling: 4:2:0\nBit depth: 8 bits\nScan type: Progressive\nBits/(Pixel*Frame): 0.234\nStream size: 892 MiB (86%)\nWriting library: XviD 1.2.1 (UTC 2008-12-04)\n\nAudio\nID: 1\nFormat: AC-3\nFormat/Info: Audio Coding 3\nMode extension: Layer 3\nCodec ID: 2000\nDuration: 1h 01mn\nBit rate mode: Constant\nBit rate: 448 Kbps\nChannel(s): 6 channels\nChannel positions: Front: L C R, Side: L R, LFE\nSampling rate: 48.0 KHz\nBit depth: 16 bits\nStream size: 302 MiB\nAlignment: Aligned on interleaves\nInterleave, duration: 42 ms (1.00 video frame)\nInterleave, preload duration: 512 ms\n\n\n::Other::\n\n\nWoot\nLOOKING FOR\nThat special grain filter a certain RG uses\nto make 70% of there rips unwatchable(:\nGREETZ &amp; RESPECT\nNOBODY YET WILL LET YOU KNOW\nMORE GOODIES COMING REAL SOON\n\n\n::More Information::\n\n &lt;a href=&quot;\nhttp://leetleech.org/images/93636734412986972833.png&quot; rel=&quot;nofollow&quot; target=&quot;_NEW&quot;&gt;\nhttp://leetleech.org/images/93636734412986972833.png&lt;/a&gt;\n\n\n::Screens::\n\n &lt;a href=&quot;\nhttp://leetleech.org/images/99756870276895685302.png&quot; rel=&quot;nofollow&quot; target=&quot;_NEW&quot;&gt;\nhttp://leetleech.org/images/99756870276895685302.png&lt;/a&gt;\n &lt;a href=&quot;\nhttp://leetleech.org/images/30510154754437100654.png&quot; rel=&quot;nofollow&quot; target=&quot;_NEW&quot;&gt;\nhttp://leetleech.org/images/30510154754437100654.png&lt;/a&gt;\n &lt;a href=&quot;\nhttp://leetleech.org/images/70581517525299709843.png&quot; rel=&quot;nofollow&quot; target=&quot;_NEW&quot;&gt;\nhttp://leetleech.org/images/70581517525299709843.png&lt;/a&gt;\n\n\nENJOY!","torrent":{"xt":"urn:btih:f7b7ee1a5817c2285f1ef65a2854f5199d5e8874","amp;dn":"Rammbock+Berlin+Undead+2011+DVDRip+Xvid+AC3+UnKnOwN","amp;tr":["udp%3A%2F%2Ftracker.openbittorrent.com%3A80","udp%3A%2F%2Fopen.demonii.com%3A1337","udp%3A%2F%2Ftracker.coppersurfer.tk%3A6969","udp%3A%2F%2Fexodus.desync.com%3A6969"],"infoHash":"f7b7ee1a5817c2285f1ef65a2854f5199d5e8874","infoHashBuffer":{"type":"Buffer","data":[247,183,238,26,88,23,194,40,95,30,246,90,40,84,245,25,157,94,136,116]},"announce":[],"urlList":[]}}